<svg width="57" height="58" viewBox="0 0 57 58" fill="none" xmlns="http://www.w3.org/2000/svg">
<path fill-rule="evenodd" clip-rule="evenodd" d="M36.5056 45.8648L47.4921 18.999L37.624 46.296C37.5973 46.37 37.5562 46.438 37.5032 46.4961C37.4501 46.5543 37.3862 46.6014 37.3149 46.6348C37.2437 46.6682 37.1666 46.6873 37.088 46.6909C37.0094 46.6945 36.9308 46.6826 36.8568 46.6558C36.7828 46.6291 36.7148 46.588 36.6567 46.535C36.5985 46.4819 36.5514 46.418 36.518 46.3467C36.4846 46.2755 36.4656 46.1984 36.4619 46.1198C36.4583 46.0411 36.4703 45.9626 36.497 45.8886L36.5056 45.8648Z" fill="#010202"/>
<path d="M22.394 46.9342C22.394 46.9342 12.8019 44.5612 9.38373 40.668C5.96744 36.773 0.457023 31.2664 0.93201 7.99961C0.93201 7.99961 4.54153 4.29681 23.7238 14.6475M37.2937 45.4465C36.7226 46.8714 38.5369 57.1898 38.5369 57.1898C38.5369 57.1898 31.1303 52.3476 27.4275 43.4209C23.7228 34.4942 25.1487 32.6904 25.4333 27.4674C25.717 22.2435 30.5259 14.0935 33.3625 11.3712C35.4062 9.40839 42.2482 4.25112 45.9625 1.48401C46.2787 1.24887 46.6396 1.08064 47.023 0.989592C47.4064 0.898548 47.8044 0.8866 48.1926 0.954478C48.5808 1.02236 48.9511 1.16863 49.2809 1.38439C49.6107 1.60014 49.8931 1.88084 50.1107 2.20934C54.4151 8.64403 56.8767 16.2143 56.7158 23.955C56.6206 28.5459 55.6069 33.1749 52.617 36.2371C52.617 36.2371 45.5655 43.0411 39.8666 43.7055C34.1697 44.3699 37.9496 54.7701 37.9496 54.7701L37.2937 45.4465Z" stroke="#010202" stroke-width="0.5" stroke-linecap="round" stroke-linejoin="round"/>
<path fill-rule="evenodd" clip-rule="evenodd" d="M12.345 18.3224C13.7546 19.7194 15.1013 21.1785 16.381 22.6953C17.0225 23.454 17.7031 24.1926 18.2095 25.0655C18.674 25.9412 19.2223 26.8703 19.2071 27.9364C19.207 27.9459 19.2036 27.9552 19.1977 27.9626C19.1917 27.9701 19.1834 27.9753 19.1741 27.9775C19.1648 27.9797 19.155 27.9787 19.1463 27.9747C19.1377 27.9707 19.1306 27.9639 19.1262 27.9554L19.1233 27.9478C18.674 27.0711 18.081 26.3201 17.4956 25.5395C16.9159 24.759 16.4019 23.9233 15.8403 23.1151C14.686 21.5124 13.4994 19.9333 12.2812 18.3786C12.2777 18.3742 12.2751 18.3691 12.2735 18.3637C12.272 18.3583 12.2715 18.3526 12.2723 18.347C12.273 18.3414 12.2748 18.336 12.2777 18.3311C12.2805 18.3262 12.2843 18.322 12.2889 18.3186C12.297 18.3121 12.3073 18.309 12.3177 18.3097C12.3281 18.3104 12.3378 18.3149 12.345 18.3224" fill="#010202"/>
</svg>
